<?xml version="1.0" encoding="UTF-8" standalone="no"?>
<!-- Uploaded to: SVG Repo, www.svgrepo.com, Transformed by: SVG Repo Mixer Tools -->

<svg
   width="1163"
   height="800"
   viewBox="0 -5 46.52 32"
   version="1.1"
   fill="#000000"
   id="svg1"
   xmlns="http://www.w3.org/2000/svg"
   xmlns:svg="http://www.w3.org/2000/svg"
   xmlns:sketch="http://www.bohemiancoding.com/sketch/ns">
  <defs
     id="defs2" />
  <g
     id="SVGRepo_iconCarrier"
     transform="matrix(1.4439542,0,0,1.4439542,0.1775291,-4.8828924)">
    <title
       id="title1">delete</title>
    <desc
       id="desc1">Created with Sketch Beta.</desc>
    <defs
       id="defs1" />
    <g
       id="Page-1"
       stroke="none"
       stroke-width="1"
       fill="none"
       fill-rule="evenodd"
       sketch:type="MSPage">
      <g
         id="Icon-Set-Filled"
         sketch:type="MSLayerGroup"
         transform="translate(-518,-1146)"
         fill="#433d3d">
        <path
           d="m 540.647,1159.24 c 0.392,0.39 0.392,1.03 0,1.42 -0.39,0.39 -1.024,0.39 -1.415,0 l -2.239,-2.24 -2.268,2.27 c -0.394,0.39 -1.033,0.39 -1.427,0 -0.394,-0.4 -0.394,-1.04 0,-1.43 l 2.268,-2.27 -2.239,-2.23 c -0.391,-0.39 -0.391,-1.03 0,-1.42 0.391,-0.39 1.025,-0.39 1.415,0 l 2.239,2.24 2.3,-2.3 c 0.395,-0.39 1.033,-0.39 1.427,0 0.395,0.4 0.395,1.03 0,1.43 l -2.3,2.3 z m 5.349,-13.24 h -17.945 c -0.28,-0.02 -0.566,0.07 -0.78,0.28 l -8.986,9.94 c -0.211,0.21 -0.302,0.49 -0.287,0.76 -0.015,0.28 0.076,0.56 0.287,0.77 l 8.986,9.94 c 0.196,0.19 0.452,0.29 0.708,0.29 v 0.02 h 18.017 c 2.211,0 4.004,-1.79 4.004,-4 v -14 c 0,-2.21 -1.793,-4 -4.004,-4 z"
           id="delete"
           sketch:type="MSShapeGroup" />
      </g>
    </g>
  </g>
</svg>
