<?xml version="1.0" encoding="UTF-8" standalone="no"?>
<!-- Uploaded to: SVG Repo, www.svgrepo.com, Transformed by: SVG Repo Mixer Tools -->

<svg
   width="640"
   height="800"
   viewBox="0 0 19.2 24"
   version="1.1"
   fill="#000000"
   id="svg1"
   xmlns="http://www.w3.org/2000/svg"
   xmlns:svg="http://www.w3.org/2000/svg">
  <defs
     id="defs1" />
  <g
     id="File"
     transform="matrix(1.1934206,0,0,1.1934206,-405.67673,-174.13998)"
     style="fill:none;fill-rule:evenodd;stroke:none;stroke-width:1">
    <g
       id="file_new_fill"
       transform="translate(336,144)">
      <path
         d="M 24,0 V 24 H 0 V 0 Z m -11.40651,23.257841 -0.01155,0.0017 -0.07106,0.03553 -0.019,0.0037 v 0 l -0.01516,-0.0037 -0.07106,-0.03553 c -0.0098,-0.0031 -0.01861,-4.89e-4 -0.02351,0.0054 l -0.0041,0.01092 -0.01709,0.427279 0.005,0.02039 0.01101,0.01222 0.103573,0.07398 0.01487,0.0039 v 0 l 0.01177,-0.0039 0.103575,-0.07398 0.0126,-0.01604 v 0 l 0.0034,-0.01656 -0.01709,-0.427279 c -0.002,-0.01013 -0.0085,-0.01653 -0.01607,-0.01799 z m 0.264901,-0.112555 -0.01384,0.002 -0.184705,0.09235 -0.01,0.01024 v 0 l -0.0027,0.01121 0.0179,0.429528 0.0048,0.01278 v 0 l 0.0085,0.0071 0.200954,0.09275 c 0.01209,0.0037 0.02289,-2.52e-4 0.02849,-0.008 l 0.004,-0.01406 -0.03415,-0.614631 c -0.0024,-0.01194 -0.01027,-0.01953 -0.01929,-0.02125 z m -0.715344,0.002 c -0.0098,-0.0049 -0.02087,-0.002 -0.02741,0.0053 l -0.0057,0.01394 -0.03415,0.614631 c -6.39e-4,0.0115 0.007,0.0207 0.01688,0.0234 l 0.01561,-0.0013 0.200955,-0.09275 0.0094,-0.0081 v 0 l 0.0039,-0.0118 0.0179,-0.429528 -0.0032,-0.01259 v 0 l -0.0095,-0.0089 z"
         id="MingCute"
         fill-rule="nonzero" />
      <path
         d="m 12,2 v 6.5 c 0,0.7796988 0.594912,1.420449 1.355544,1.4931335 L 13.5,10 H 20 v 10 c 0,1.054391 -0.81585,1.918168 -1.850734,1.994514 L 18,22 H 6 C 4.9456377,22 4.0818348,21.18415 4.0054857,20.149266 L 4,20 V 4 C 4,2.9456377 4.8158773,2.0818348 5.8507376,2.0054857 L 6,2 Z m 0,9.5 c -0.51285,0 -0.935509,0.386027 -0.993272,0.883376 L 11,12.5 V 14 H 9.5 c -0.55228,0 -1,0.4477 -1,1 0,0.51285 0.3860443,0.935509 0.8833798,0.993273 L 9.5,16 H 11 v 1.5 c 0,0.5523 0.4477,1 1,1 0.51285,0 0.935509,-0.386027 0.993273,-0.883376 L 13,17.5 V 16 h 1.5 c 0.5523,0 1,-0.4477 1,-1 0,-0.51285 -0.386027,-0.935509 -0.883376,-0.993272 L 14.5,14 H 13 v -1.5 c 0,-0.5523 -0.4477,-1 -1,-1 z m 2,-9.45664 c 0.3222,0.06822 0.624049,0.2153241 0.877461,0.4296936 L 15,2.58579 19.4142,7 c 0.236486,0.2364686 0.407657,0.5260555 0.501801,0.8407123 L 19.9566,8 H 14 Z"
         id="形状"
         fill="#433d3d" />
    </g>
  </g>
</svg>
